<?xml version="1.0" standalone="no"?>
<!DOCTYPE svg PUBLIC "-//W3C//DTD SVG 20010904//EN"
 "http://www.w3.org/TR/2001/REC-SVG-20010904/DTD/svg10.dtd">
<svg version="1.0" xmlns="http://www.w3.org/2000/svg"
 width="550.000000pt" height="540.000000pt" viewBox="0 0 550.000000 540.000000"
 preserveAspectRatio="xMidYMid meet">

<g transform="translate(0.000000,540.000000) scale(0.100000,-0.100000)"
fill="#000000" stroke="none">
<path d="M2874 5246 c-18 -8 -99 -63 -180 -122 -82 -59 -186 -132 -231 -161
-81 -53 -82 -53 -160 -53 -90 0 -181 -20 -398 -86 -241 -74 -474 -181 -643
-295 -48 -32 -114 -76 -147 -98 -33 -22 -64 -45 -70 -52 -5 -7 -49 -50 -97
-96 -84 -82 -157 -177 -145 -190 4 -3 59 48 124 113 267 271 599 465 1006 588
143 43 310 76 388 76 75 0 98 11 229 108 250 186 397 275 411 249 18 -34 48
-285 49 -419 0 -9 30 -40 68 -69 37 -29 103 -87 147 -129 123 -118 97 -110
345 -110 118 0 221 -4 229 -9 30 -19 6 -94 -140 -438 l-43 -103 13 -72 c29
-163 41 -256 41 -320 l0 -68 35 0 c39 0 105 -24 105 -38 0 -5 -36 -7 -79 -4
l-79 4 -7 -33 c-8 -35 -5 -38 53 -71 32 -17 66 -61 60 -77 -1 -5 -30 8 -63 30
-33 21 -62 39 -65 39 -3 0 -22 -35 -42 -78 -69 -143 -124 -226 -199 -299 -136
-132 -224 -193 -410 -283 -89 -43 -145 -51 -210 -28 -19 6 -108 56 -198 110
-146 87 -210 118 -248 118 -7 0 -19 -24 -27 -52 -13 -46 -62 -292 -80 -399 -4
-20 -17 -48 -31 -61 -35 -35 -194 -112 -230 -111 -17 1 -109 22 -205 48 -96
26 -199 48 -229 49 -50 1 -55 -1 -60 -22 -11 -43 8 -235 38 -398 l30 -162 -32
-133 c-30 -129 -31 -143 -32 -354 0 -140 4 -234 12 -257 10 -33 9 -38 -4 -38
-43 0 -145 -24 -158 -37 -26 -25 -17 -31 35 -21 28 5 74 8 103 6 48 -3 52 -5
55 -29 2 -20 -5 -31 -38 -54 -42 -29 -80 -70 -80 -86 0 -21 37 -6 86 36 l52
45 23 -37 c78 -130 122 -187 198 -263 104 -103 213 -168 375 -224 40 -14 8
-13 -73 1 -127 22 -411 130 -595 226 -202 106 -320 192 -455 333 -149 156
-190 206 -238 292 -20 37 -67 120 -105 184 -112 191 -161 306 -212 493 -66
245 -88 425 -93 767 -5 290 1 381 38 538 42 183 140 458 189 535 22 33 49 85
62 115 12 30 42 89 66 130 84 143 88 162 18 93 -37 -37 -121 -190 -145 -265
-7 -20 -19 -42 -27 -49 -28 -23 -61 -101 -133 -318 -47 -143 -75 -242 -82
-300 -53 -423 -33 -875 53 -1186 78 -283 89 -311 219 -550 128 -234 174 -301
296 -432 174 -188 203 -214 318 -288 203 -129 257 -157 461 -240 146 -59 312
-109 419 -126 87 -13 719 -27 797 -17 73 10 476 104 544 128 149 52 352 147
451 213 87 57 146 109 308 272 113 113 227 237 261 285 145 202 312 526 369
715 103 347 105 360 105 717 0 167 -5 332 -11 368 -28 175 -175 588 -247 692
-16 24 -53 90 -82 148 -73 145 -107 196 -202 300 -46 50 -110 122 -143 159
-85 96 -302 285 -400 348 -107 68 -622 255 -741 269 -67 8 -74 21 -74 127 0
67 -20 183 -41 235 -7 18 -16 22 -51 22 -24 -1 -57 -7 -74 -14z m-27 -3460
c31 -39 48 -128 34 -175 -14 -48 -68 -98 -116 -107 -51 -9 -120 28 -167 92
-40 52 -47 81 -23 90 10 4 35 -15 73 -57 51 -55 63 -63 95 -63 54 0 77 26 77
89 0 28 -6 73 -14 98 -7 25 -11 48 -8 51 12 12 31 5 49 -18z m524 -123 c-14
-24 -29 -40 -89 -98 -51 -48 -52 -49 -52 -22 0 32 55 97 103 121 42 20 50 20
38 -1z m98 -186 c8 -11 -3 -16 -57 -26 -37 -7 -78 -15 -90 -18 -19 -5 -23 -2
-20 13 6 32 144 58 167 31z m-1404 -49 c59 -127 8 -258 -100 -258 -68 1 -154
65 -192 146 -13 27 -14 36 -3 49 19 23 26 19 58 -34 65 -105 126 -129 183 -72
35 35 35 46 8 127 -12 35 -19 70 -16 79 12 30 38 15 62 -37z m533 -125 c4 -38
-36 -89 -77 -98 -15 -3 -47 -2 -70 4 -40 9 -42 8 -56 -19 -31 -59 -112 -88
-166 -59 -32 16 -5 39 46 39 49 0 69 18 79 71 7 42 30 67 41 48 9 -14 84 -48
106 -49 9 0 22 14 29 33 28 69 63 85 68 30z"/>
<path d="M2422 4233 c-19 -43 -27 -74 -27 -120 0 -55 3 -65 29 -92 57 -59 127
-64 199 -14 33 23 87 95 87 116 0 20 -36 1 -85 -43 -60 -54 -100 -64 -142 -35
-38 27 -45 78 -21 151 34 104 4 132 -40 37z"/>
<path d="M2091 4168 c13 -18 41 -55 63 -83 23 -27 42 -52 43 -54 2 -2 6 -1 10
3 13 12 -39 96 -81 132 -50 43 -64 44 -35 2z"/>
<path d="M1966 4007 c-24 -18 -10 -23 69 -26 33 -1 68 -4 79 -7 34 -11 11 20
-25 33 -46 16 -101 16 -123 0z"/>
<path d="M3183 3813 c-44 -103 -37 -181 18 -227 40 -34 102 -35 150 -3 38 26
84 89 93 130 10 43 -27 36 -55 -10 -35 -59 -70 -93 -97 -93 -26 0 -63 17 -74
34 -13 19 -8 79 11 144 11 34 15 62 11 62 -5 0 -15 2 -23 6 -10 3 -20 -10 -34
-43z"/>
<path d="M2686 3794 c-47 -46 20 -124 106 -124 26 0 36 -6 50 -30 21 -37 79
-64 119 -55 29 6 46 22 36 32 -3 2 -25 9 -48 14 -56 13 -66 22 -74 70 -6 37
-9 40 -32 34 -94 -23 -123 -14 -123 40 0 38 -10 44 -34 19z"/>
</g>
</svg>
