<?xml version="1.0" standalone="no"?>
<!DOCTYPE svg PUBLIC "-//W3C//DTD SVG 20010904//EN"
 "http://www.w3.org/TR/2001/REC-SVG-20010904/DTD/svg10.dtd">
<svg version="1.0" xmlns="http://www.w3.org/2000/svg"
 width="550.000000pt" height="550.000000pt" viewBox="0 0 550.000000 550.000000"
 preserveAspectRatio="xMidYMid meet">

<g transform="translate(0.000000,550.000000) scale(0.100000,-0.100000)"
fill="#000000" stroke="none">
<path d="M2400 5324 c-14 -2 -65 -11 -115 -20 -523 -89 -998 -335 -1383 -717
-419 -414 -670 -922 -747 -1511 -19 -143 -20 -506 -1 -646 154 -1146 1017
-2037 2161 -2230 102 -17 165 -20 423 -20 167 0 336 5 375 11 594 87 1101 346
1518 775 63 66 135 146 160 178 266 348 435 713 513 1106 58 292 65 600 22
892 -121 810 -630 1520 -1366 1907 -199 104 -453 196 -650 235 -47 10 -103 22
-125 28 -39 10 -734 21 -785 12z m-74 -724 c63 -172 77 -286 71 -561 -2 -123
-8 -234 -12 -246 -6 -20 -14 -14 -72 65 -72 96 -177 212 -193 212 -20 0 -9
-19 43 -82 80 -95 188 -244 235 -325 66 -113 104 -276 109 -473 6 -209 -10
-277 -99 -414 -72 -111 -97 -130 -375 -283 -67 -37 -80 -50 -66 -64 9 -9 168
75 316 168 84 53 92 61 157 160 59 92 71 117 90 201 19 83 22 115 17 237 -4
116 -11 163 -40 277 -22 85 -47 158 -67 193 -31 55 -32 57 -21 119 6 34 11
162 11 284 0 150 4 223 11 228 6 3 9 19 5 35 -5 27 -4 28 14 17 15 -10 22 -10
32 0 17 17 -3 47 -31 46 -12 0 -20 4 -18 10 8 23 39 16 66 -13 16 -17 32 -31
35 -31 3 0 13 18 22 40 18 44 56 80 85 80 22 0 51 -41 49 -67 -4 -33 0 -43 15
-43 8 0 15 -6 15 -14 0 -8 4 -17 9 -20 18 -11 41 6 41 30 0 18 -6 24 -21 24
-18 0 -19 2 -9 15 19 23 48 18 67 -11 14 -22 15 -30 4 -58 -24 -57 -20 -71 16
-68 22 2 38 -3 52 -17 29 -29 26 -48 -11 -83 -17 -16 -32 -39 -33 -51 -1 -12
-27 -170 -58 -352 -31 -181 -63 -384 -71 -450 -9 -66 -20 -160 -26 -210 -6
-49 -16 -121 -22 -160 -6 -38 -12 -158 -13 -265 -2 -152 -11 -258 -39 -480
-38 -308 -141 -954 -156 -982 -6 -10 -7 -24 -4 -32 3 -9 -4 -19 -18 -27 -29
-15 -38 -28 -38 -58 0 -36 28 -61 68 -61 31 0 34 -2 27 -22 -14 -46 -17 -86
-6 -107 15 -28 66 -29 83 -1 20 31 38 24 38 -14 0 -42 22 -66 60 -66 30 0 59
31 80 84 12 31 21 33 46 5 31 -34 51 -41 68 -23 19 19 21 57 4 84 -10 15 -10
22 -2 28 8 5 14 84 18 247 3 132 9 265 12 296 5 49 2 61 -23 105 -27 44 -70
191 -93 316 -5 27 -10 108 -11 180 -1 188 20 269 108 404 64 99 67 101 172
166 145 89 268 158 281 158 28 0 1 -23 -82 -70 -51 -29 -136 -79 -190 -112
-91 -57 -100 -65 -161 -157 -57 -85 -68 -110 -87 -194 -47 -204 -2 -528 98
-702 51 -89 172 -255 239 -327 44 -48 57 -77 27 -60 -22 12 -118 125 -184 216
-30 41 -58 76 -61 76 -12 0 -29 -194 -29 -332 0 -281 63 -543 163 -680 27 -38
52 -68 56 -68 24 0 238 262 356 437 101 150 155 234 155 246 0 4 -17 7 -37 7
-21 0 -45 5 -53 11 -11 7 20 9 108 4 78 -4 158 -2 218 6 84 11 95 15 91 31 -3
10 -1 20 3 23 8 5 80 -104 80 -122 0 -16 22 -32 36 -26 26 10 143 160 225 290
45 70 113 175 152 233 115 171 187 387 222 669 8 63 12 138 9 167 -8 67 12 75
22 9 18 -124 -39 -439 -117 -639 -27 -70 -67 -148 -113 -217 -195 -297 -269
-408 -299 -444 -51 -64 -127 -125 -186 -149 -65 -26 -97 -63 -87 -100 4 -16
13 -26 25 -26 29 0 32 -11 10 -41 -27 -38 -31 -66 -13 -84 19 -19 43 -19 68 0
28 21 38 8 21 -25 -21 -41 -19 -67 9 -85 28 -19 69 -7 86 25 16 31 34 19 40
-25 5 -38 5 -39 -55 -71 -358 -196 -565 -273 -910 -341 -125 -25 -661 -30
-814 -8 -739 105 -1406 536 -1807 1167 -165 260 -314 639 -358 913 -3 17 -11
62 -18 100 -14 78 -18 536 -6 645 48 410 215 845 452 1175 161 225 425 495
483 495 25 0 43 -31 43 -76 0 -31 21 -31 48 1 26 30 62 32 86 6 17 -18 17 -22
2 -52 -18 -35 -21 -59 -8 -59 5 0 8 -10 8 -22 -1 -14 6 -24 17 -26 25 -5 33
26 11 43 -18 13 -17 14 8 26 52 23 79 -34 38 -79 -26 -28 -25 -41 5 -52 19 -7
25 -17 25 -38 0 -36 -20 -55 -85 -80 -83 -33 -205 -155 -290 -292 -53 -85
-137 -215 -204 -315 -82 -122 -138 -263 -180 -456 -50 -225 -61 -444 -22 -437
13 3 16 16 13 83 -6 146 44 402 114 581 32 85 69 152 147 271 57 87 124 192
150 233 49 79 181 240 197 240 5 0 27 -31 50 -70 48 -81 57 -89 69 -57 8 21
19 25 94 36 54 7 131 9 211 5 86 -5 126 -4 126 4 0 5 -22 13 -50 17 -27 4 -50
11 -50 15 0 5 54 89 119 187 115 170 300 407 358 457 l27 24 45 -62 c30 -40
60 -101 87 -176z m1927 -1935 c-1 -5 -10 -11 -20 -13 -38 -7 -122 -45 -139
-63 -18 -20 -44 -26 -44 -10 0 15 69 63 119 82 48 19 87 21 84 4z m-1220 -211
c26 -14 72 -34 102 -45 53 -20 72 -39 40 -39 -9 0 -60 20 -114 45 -54 25 -106
45 -115 45 -9 0 -16 7 -16 15 0 20 37 12 103 -21z m737 4 c23 -25 28 -88 6
-88 -8 0 -12 8 -9 23 3 13 -3 33 -14 46 -26 32 -68 22 -128 -31 -44 -39 -46
-40 -70 -24 -49 32 -115 18 -115 -24 0 -16 -4 -32 -10 -35 -15 -9 -23 40 -11
64 20 36 128 51 147 19 3 -5 24 6 47 25 49 40 61 45 104 46 21 1 39 -7 53 -21z
m584 -64 c88 -12 46 -24 -61 -18 -63 4 -141 2 -187 -5 -75 -11 -97 -9 -83 6
20 19 232 30 331 17z m-715 -125 c33 -27 15 -39 -56 -39 -43 0 -53 3 -53 16 0
43 69 57 109 23z m-444 -19 c2 -4 -28 -10 -68 -13 -40 -3 -100 -15 -134 -26
-39 -12 -65 -15 -69 -9 -9 14 -7 15 92 40 85 22 168 26 179 8z m1070 -44 c82
-37 155 -85 155 -102 0 -19 -6 -18 -43 10 -47 36 -175 96 -229 107 -28 6 -48
16 -48 24 0 18 82 -2 165 -39z m-450 -38 c147 -44 296 -138 375 -238 l33 -42
-37 -76 c-67 -134 -152 -229 -261 -291 -110 -62 -139 -73 -205 -84 -63 -9 -68
-8 -139 23 -172 75 -329 197 -377 292 l-25 49 26 57 c14 31 46 89 71 128 37
61 55 78 116 115 40 24 99 56 133 72 55 25 67 27 140 21 44 -3 112 -15 150
-26z m-605 -8 c0 -6 -24 -25 -52 -42 -29 -18 -82 -52 -117 -75 -66 -44 -81
-50 -81 -33 0 12 218 158 238 159 6 1 12 -4 12 -9z m-189 -871 c18 -33 51 -75
76 -95 47 -38 183 -104 218 -104 11 0 39 -9 63 -20 34 -15 42 -24 42 -45 0
-41 -72 -152 -188 -291 -110 -131 -141 -159 -149 -137 -2 7 -16 29 -30 50 -27
40 -64 174 -88 320 -15 93 -21 383 -8 396 11 11 32 -13 64 -74z m-342 -75
c103 -30 162 -123 111 -174 -19 -19 -30 -22 -71 -18 -65 7 -160 55 -177 91
-10 21 -11 35 -2 62 19 57 50 66 139 39z m-204 -129 c0 -25 -40 -33 -49 -10
-9 24 2 37 27 33 14 -2 22 -10 22 -23z m1751 -117 c76 -70 94 -130 52 -175
-43 -46 -116 -19 -195 71 -63 71 -36 146 52 146 39 0 51 -6 91 -42z m-1651
-18 c0 -16 -6 -26 -18 -28 -19 -4 -32 20 -23 44 9 25 41 13 41 -16z m285 5
c15 -18 5 -35 -20 -35 -22 0 -34 15 -26 35 7 19 30 19 46 0z m1143 -27 c7 -21
-4 -38 -23 -38 -23 0 -32 13 -24 34 7 19 40 21 47 4z m-1296 -19 c16 -16 5
-39 -17 -39 -23 0 -34 16 -26 35 6 18 28 19 43 4z m1310 -105 c3 -8 1 -20 -4
-25 -14 -14 -43 0 -43 22 0 24 38 26 47 3z m71 -102 c3 -16 -2 -22 -17 -22
-26 0 -36 17 -20 36 16 19 33 13 37 -14z m177 -22 c0 -18 -6 -26 -23 -28 -27
-4 -40 22 -22 44 19 22 45 13 45 -16z"/>
<path d="M2203 4723 c-24 -9 -249 -296 -285 -364 -53 -100 -54 -99 135 -158
120 -37 187 -92 247 -200 14 -25 33 -47 43 -49 16 -3 17 9 17 148 0 237 -41
457 -107 575 -27 49 -32 54 -50 48z"/>
<path d="M1044 4645 c-8 -21 2 -45 19 -45 20 0 40 27 33 45 -7 19 -45 20 -52
0z"/>
<path d="M1224 4625 c-8 -20 3 -48 18 -43 6 2 16 12 22 21 8 13 7 20 -4 27
-21 14 -30 12 -36 -5z"/>
<path d="M1055 4538 c-58 -31 -60 -85 -8 -156 21 -28 53 -58 71 -66 113 -54
192 45 109 135 -43 46 -115 99 -136 99 -9 0 -25 -6 -36 -12z"/>
<path d="M2600 4434 c-11 -12 -10 -18 3 -31 8 -9 23 -13 31 -10 21 8 21 43 0
51 -21 8 -20 8 -34 -10z"/>
<path d="M1315 4417 c-18 -14 -11 -47 9 -47 15 0 36 21 36 36 0 18 -26 24 -45
11z"/>
<path d="M2520 4270 c-26 -26 -25 -70 1 -104 31 -39 114 -78 170 -80 56 -1 75
13 84 65 9 49 -27 91 -101 118 -71 27 -128 27 -154 1z"/>
<path d="M2845 4247 c-23 -17 -14 -47 15 -47 26 0 37 27 18 46 -12 12 -17 12
-33 1z"/>
<path d="M1535 3866 c-64 -20 -199 -98 -248 -143 -65 -60 -134 -154 -168 -228
-16 -35 -29 -69 -29 -75 0 -6 33 -43 74 -84 119 -118 317 -209 479 -219 89 -6
133 8 267 90 82 49 109 82 180 216 l42 78 -16 41 c-27 65 -103 144 -206 212
-175 115 -272 145 -375 112z m-47 -142 c-41 -86 -43 -93 -46 -200 -3 -97 -1
-120 22 -187 14 -41 41 -100 60 -130 l35 -55 -59 19 c-106 33 -231 103 -307
174 -40 37 -73 73 -73 81 0 48 114 217 183 273 37 30 217 123 225 116 1 -1
-17 -42 -40 -91z m357 42 c124 -75 208 -152 243 -224 15 -31 15 -35 -12 -90
-54 -113 -104 -176 -175 -220 -36 -22 -67 -39 -69 -37 -2 2 7 23 20 47 21 39
23 56 23 173 0 156 -19 237 -76 326 -22 33 -39 62 -39 64 0 8 33 -8 85 -39z"/>
<path d="M2240 3254 c-128 -85 -140 -93 -140 -104 0 -17 16 -11 76 28 33 22
85 56 117 76 31 21 57 44 57 52 0 20 -5 18 -110 -52z"/>
<path d="M890 3206 c0 -28 200 -129 279 -142 62 -10 51 12 -16 31 -59 17 -179
74 -225 106 -31 23 -38 24 -38 5z"/>
<path d="M2280 3094 c-47 -12 -104 -23 -128 -23 -26 -1 -41 -5 -37 -11 17 -28
262 15 273 48 5 15 -4 14 -108 -14z"/>
<path d="M1662 3073 c-22 -8 27 -53 57 -53 30 1 75 35 66 50 -6 10 -99 13
-123 3z m70 -25 c-9 -9 -15 -9 -24 0 -9 9 -7 12 12 12 19 0 21 -3 12 -12z"/>
<path d="M1868 2958 c-2 -27 -9 -34 -37 -42 -26 -7 -40 -6 -67 9 l-33 18 -37
-33 c-43 -37 -96 -62 -117 -54 -21 8 -40 50 -34 73 3 14 0 21 -9 21 -22 0 -17
-63 7 -94 34 -43 85 -35 158 25 21 17 39 25 45 20 37 -28 128 -16 147 20 12
22 5 69 -11 69 -5 0 -10 -14 -12 -32z"/>
<path d="M1235 2949 c-22 -4 -105 -8 -185 -8 -115 -1 -142 -4 -132 -13 9 -9
55 -13 155 -13 158 0 217 8 217 30 0 8 -3 14 -7 14 -5 -1 -26 -5 -48 -10z"/>
<path d="M2127 2943 c-14 -13 -6 -21 41 -38 26 -10 73 -31 104 -46 58 -29 108
-38 108 -19 0 6 -5 10 -11 10 -7 0 -61 23 -121 50 -121 56 -112 52 -121 43z"/>
<path d="M1230 2735 c-18 -21 -129 -75 -157 -75 -25 0 -31 -15 -9 -23 36 -14
188 61 194 96 4 21 -11 22 -28 2z"/>
<path d="M3762 2144 c28 -33 77 -138 94 -203 11 -44 15 -94 12 -166 -3 -98 -5
-106 -45 -186 -48 -94 -51 -103 -25 -90 9 5 55 27 102 49 121 58 210 152 266
281 l28 64 -76 73 c-79 75 -204 149 -297 174 -23 6 -50 14 -59 17 -16 6 -16 5
0 -13z"/>
<path d="M3417 2088 c-50 -30 -79 -56 -106 -97 -61 -89 -102 -178 -96 -204 11
-42 104 -144 178 -195 65 -44 148 -92 161 -92 3 0 -6 17 -20 38 -76 111 -108
228 -102 379 3 81 8 108 30 156 15 31 26 57 25 57 -1 -1 -33 -19 -70 -42z"/>
</g>
</svg>
