<?xml version="1.0" standalone="no"?>
<!DOCTYPE svg PUBLIC "-//W3C//DTD SVG 20010904//EN"
 "http://www.w3.org/TR/2001/REC-SVG-20010904/DTD/svg10.dtd">
<svg version="1.0" xmlns="http://www.w3.org/2000/svg"
 width="630.000000pt" height="630.000000pt" viewBox="0 0 630.000000 630.000000"
 preserveAspectRatio="xMidYMid meet">

<g transform="translate(0.000000,630.000000) scale(0.100000,-0.100000)"
fill="#000000" stroke="none">
<path d="M4662 5280 c-43 -27 -62 -74 -62 -157 0 -106 -11 -131 -111 -244
-118 -136 -144 -189 -144 -294 0 -108 28 -166 135 -272 66 -66 80 -85 80 -111
0 -46 -47 -93 -159 -159 -184 -108 -240 -161 -267 -249 -33 -110 -8 -175 103
-278 66 -61 113 -137 113 -184 0 -32 -25 -76 -53 -95 -14 -9 -53 -23 -88 -33
-55 -14 -95 -15 -288 -10 -191 6 -229 10 -261 26 -51 26 -70 70 -70 160 0 154
-40 213 -205 305 -152 85 -174 112 -214 272 -12 45 -30 102 -41 128 -20 47
-123 165 -144 165 -19 0 -92 -81 -115 -127 -24 -48 -36 -51 -102 -27 -55 20
-205 24 -237 6 -20 -12 -26 -10 -54 13 -17 15 -68 45 -112 67 -45 22 -83 44
-84 49 -7 17 -22 -2 -22 -26 0 -13 -22 -88 -49 -167 -132 -384 -140 -439 -94
-668 39 -199 23 -248 -104 -311 -96 -47 -146 -58 -358 -74 -230 -18 -317 -31
-371 -54 -70 -32 -86 -91 -35 -134 35 -29 96 -41 286 -57 200 -17 252 -41 231
-108 -12 -37 -181 -91 -283 -92 -23 0 -91 -7 -150 -15 -59 -8 -173 -19 -253
-25 -186 -13 -255 -26 -306 -55 -100 -58 -73 -170 51 -213 46 -16 131 -17
1085 -17 975 0 1038 -1 1089 -18 66 -23 101 -56 101 -96 0 -38 -29 -61 -112
-91 -199 -70 -236 -98 -217 -164 23 -84 119 -120 319 -118 141 1 554 16 870
32 102 5 275 9 385 10 288 0 639 39 755 85 221 87 355 225 354 365 0 128 -101
251 -271 332 -49 23 -92 33 -212 48 -178 23 -245 41 -300 80 -72 53 -90 116
-46 168 32 38 81 58 207 82 123 24 174 48 228 106 71 78 89 158 51 239 -33 72
-81 106 -251 175 -236 97 -305 147 -305 220 0 32 8 47 40 81 22 22 71 56 108
75 86 44 145 98 198 181 53 85 69 132 69 207 0 94 -33 151 -125 221 -86 65
-115 101 -122 155 -6 43 -11 36 118 155 74 67 109 158 109 279 0 96 -26 162
-84 214 -70 63 -144 78 -204 42z m-2136 -1543 c29 -16 71 -68 84 -103 16 -41
10 -133 -11 -176 -50 -100 -183 -128 -274 -56 -66 51 -87 166 -46 251 19 39
65 87 84 87 2 0 7 -55 10 -122 4 -92 11 -138 27 -180 26 -71 50 -78 50 -15 0
42 23 232 36 295 7 35 10 37 40 19z m414 -100 c0 -106 18 -202 46 -245 20 -30
24 -26 30 34 10 102 35 286 41 300 8 21 28 17 64 -13 118 -100 77 -312 -69
-353 -52 -14 -60 -13 -119 14 -55 26 -94 78 -108 144 -11 55 13 130 58 179 22
24 43 43 48 43 5 0 9 -46 9 -103z"/>
</g>
</svg>
