<?xml version="1.0" standalone="no"?>
<!DOCTYPE svg PUBLIC "-//W3C//DTD SVG 20010904//EN"
 "http://www.w3.org/TR/2001/REC-SVG-20010904/DTD/svg10.dtd">
<svg version="1.0" xmlns="http://www.w3.org/2000/svg"
 width="564.000000pt" height="564.000000pt" viewBox="0 0 564.000000 564.000000"
 preserveAspectRatio="xMidYMid meet">

<g transform="translate(0.000000,564.000000) scale(0.100000,-0.100000)"
fill="#000000" stroke="none">
<path d="M3159 4270 c-38 -11 -103 -57 -128 -91 -12 -17 -36 -50 -52 -74 -36
-54 -111 -105 -154 -105 -35 0 -96 36 -170 100 -100 87 -181 103 -241 48 -32
-30 -35 -39 -41 -103 -4 -55 -1 -89 17 -155 44 -165 45 -190 17 -246 -13 -27
-32 -72 -41 -101 -22 -66 -14 -98 50 -193 102 -151 107 -160 106 -191 -1 -47
-26 -76 -104 -116 -85 -45 -223 -146 -296 -217 -101 -97 -199 -243 -310 -456
-24 -47 -78 -136 -120 -198 -152 -224 -192 -294 -189 -332 3 -50 50 -80 128
-81 33 -1 65 -2 72 -3 14 -1 15 -137 3 -466 -9 -234 -6 -257 41 -287 24 -16
68 -19 453 -26 483 -10 967 -13 1244 -9 268 4 281 12 297 197 12 146 17 240
24 420 3 88 8 175 11 192 l5 33 84 -1 c95 -2 130 13 141 57 8 32 -4 55 -94
179 -131 182 -186 245 -215 252 -20 4 -26 10 -22 21 13 35 69 436 80 572 3 42
-1 134 -9 210 -16 144 -32 198 -124 432 -63 158 -89 209 -141 278 -23 30 -46
73 -51 95 -37 152 -116 328 -159 349 -36 18 -81 25 -112 16z m-39 -468 c47
-48 58 -161 22 -229 -32 -59 -99 -70 -150 -24 -17 17 -32 34 -32 38 -1 4 -5
27 -9 51 -5 23 -4 64 0 90 17 94 108 134 169 74z m-381 -31 c37 -36 45 -65 39
-137 -10 -121 -121 -155 -173 -54 -17 34 -20 116 -4 157 24 66 89 82 138 34z
m164 -1560 c18 -7 26 -15 21 -23 -27 -46 -241 -301 -258 -307 -11 -5 -109 -11
-216 -14 -107 -4 -223 -11 -258 -17 -65 -11 -509 -6 -549 6 -13 3 -23 11 -23
16 0 21 242 343 263 351 28 9 993 -2 1020 -12z m773 -58 c21 -31 65 -95 96
-142 l58 -86 -169 -7 c-210 -10 -237 -5 -272 47 -45 68 -129 219 -129 232 0
10 41 13 189 13 l188 0 39 -57z m-640 -58 c3 -14 4 -44 0 -68 -3 -23 -8 -184
-12 -357 -3 -173 -7 -355 -9 -405 -2 -49 -3 -117 -4 -149 l-1 -59 -317 7
c-324 7 -697 21 -812 32 l-63 6 3 318 c3 175 8 322 12 326 4 4 96 11 205 15
108 5 242 13 297 18 55 6 163 10 239 11 195 0 211 10 343 208 85 127 107 145
119 97z m194 -102 c76 -146 102 -173 169 -173 26 0 96 -3 154 -7 l107 -6 -1
-96 c-1 -140 -24 -619 -30 -625 -3 -3 -110 -7 -239 -8 l-234 -3 -9 35 c-10 35
1 910 12 993 2 17 12 1 71 -110z"/>
<path d="M3010 3761 c-16 -30 -12 -102 8 -141 13 -26 23 -35 42 -35 20 0 28 8
37 35 14 40 7 104 -14 137 -19 28 -59 30 -73 4z"/>
<path d="M2661 3746 c-22 -26 -25 -84 -6 -131 13 -36 21 -45 40 -45 30 0 45
26 45 80 0 83 -45 138 -79 96z"/>
<path d="M2014 1659 c-15 -16 -19 -36 -19 -90 0 -78 15 -98 72 -99 59 0 82 84
43 159 -28 55 -63 66 -96 30z"/>
<path d="M2617 1669 c-24 -14 -47 -69 -47 -112 0 -73 80 -117 115 -64 54 84 2
218 -68 176z"/>
<path d="M2269 1371 c-261 -6 -289 -11 -289 -47 0 -19 38 -41 90 -52 27 -6
153 -7 307 -3 l263 6 27 27 c27 28 27 28 8 47 -26 26 -87 29 -406 22z"/>
</g>
</svg>
